<svg width="31" height="32" viewBox="0 0 31 32" fill="none" xmlns="http://www.w3.org/2000/svg">
<g clip-path="url(#clip0_19_571)">
<path d="M30.9999 16.2335C30.9999 15.1547 30.9128 14.0702 30.7268 13.0089H15.8108V19.1198H24.3525C23.998 21.0907 22.8592 22.8342 21.1915 23.9421V27.9071H26.2875C29.28 25.1432 30.9999 21.0615 30.9999 16.2335Z" fill="#4285F4"/>
<path d="M15.811 31.7381C20.0761 31.7381 23.6729 30.3328 26.2935 27.9071L21.1975 23.942C19.7797 24.91 17.9494 25.4581 15.8168 25.4581C11.6913 25.4581 8.19322 22.665 6.93811 18.9099H1.67944V22.9974C4.36398 28.3561 9.83183 31.7381 15.811 31.7381Z" fill="#34A853"/>
<path d="M6.93224 18.9099C6.26983 16.939 6.26983 14.8049 6.93224 12.834V8.74649H1.67939C-0.563539 13.2305 -0.563539 18.5134 1.67939 22.9974L6.93224 18.9099Z" fill="#FBBC04"/>
<path d="M15.811 6.28001C18.0656 6.24503 20.2446 7.09635 21.8774 8.65906L26.3923 4.12838C23.5334 1.43446 19.739 -0.0466162 15.811 3.17992e-05C9.83183 3.17992e-05 4.36398 3.38201 1.67944 8.74652L6.9323 12.8341C8.1816 9.07306 11.6854 6.28001 15.811 6.28001Z" fill="#EA4335"/>
</g>
<defs>
<clipPath id="clip0_19_571">
<rect width="31" height="31.7381" fill="white"/>
</clipPath>
</defs>
</svg>
